<svg xmlns="http://www.w3.org/2000/svg" xmlns:xlink="http://www.w3.org/1999/xlink" width="500" zoomAndPan="magnify" viewBox="0 0 375 374.999991" height="500" preserveAspectRatio="xMidYMid meet" version="1.0"><defs><g/><clipPath id="25fe477865"><path d="M 60.863281 162.433594 L 104.9375 162.433594 L 104.9375 206.511719 L 60.863281 206.511719 Z M 60.863281 162.433594 " clip-rule="nonzero"/></clipPath><clipPath id="2580a7248b"><path d="M 82.898438 162.433594 C 70.730469 162.433594 60.863281 172.300781 60.863281 184.472656 C 60.863281 196.644531 70.730469 206.511719 82.898438 206.511719 C 95.070312 206.511719 104.9375 196.644531 104.9375 184.472656 C 104.9375 172.300781 95.070312 162.433594 82.898438 162.433594 Z M 82.898438 162.433594 " clip-rule="nonzero"/></clipPath><clipPath id="76a9737c04"><path d="M 63.121094 164.691406 L 102.679688 164.691406 L 102.679688 204.253906 L 63.121094 204.253906 Z M 63.121094 164.691406 " clip-rule="nonzero"/></clipPath><clipPath id="a7396015e5"><path d="M 82.898438 164.691406 C 71.976562 164.691406 63.121094 173.546875 63.121094 184.472656 C 63.121094 195.398438 71.976562 204.253906 82.898438 204.253906 C 93.824219 204.253906 102.679688 195.398438 102.679688 184.472656 C 102.679688 173.546875 93.824219 164.691406 82.898438 164.691406 Z M 82.898438 164.691406 " clip-rule="nonzero"/></clipPath><clipPath id="44cd40a3be"><path d="M 64 165.175781 L 101.851562 165.175781 L 101.851562 203.425781 L 64 203.425781 Z M 64 165.175781 " clip-rule="nonzero"/></clipPath><clipPath id="104f6d9e1e"><path d="M 67 165.175781 L 101.851562 165.175781 L 101.851562 198 L 67 198 Z M 67 165.175781 " clip-rule="nonzero"/></clipPath><clipPath id="1afdcfc6e8"><path d="M 67 165.175781 L 101.851562 165.175781 L 101.851562 192 L 67 192 Z M 67 165.175781 " clip-rule="nonzero"/></clipPath><clipPath id="373092ccba"><path d="M 63.601562 165.175781 L 101.851562 165.175781 L 101.851562 203.425781 L 63.601562 203.425781 Z M 63.601562 165.175781 " clip-rule="nonzero"/></clipPath><clipPath id="da8ef36592"><path d="M 64 166 L 101.851562 166 L 101.851562 203.425781 L 64 203.425781 Z M 64 166 " clip-rule="nonzero"/></clipPath><clipPath id="75a1d9e891"><path d="M 179.136719 167.351562 L 192.539062 167.351562 L 192.539062 180.109375 L 179.136719 180.109375 Z M 179.136719 167.351562 " clip-rule="nonzero"/></clipPath><clipPath id="c13b65e1c3"><path d="M 185.828125 167.351562 L 187.410156 172.226562 L 192.519531 172.226562 L 188.382812 175.234375 L 189.964844 180.109375 L 185.828125 177.097656 L 181.691406 180.109375 L 183.273438 175.234375 L 179.136719 172.226562 L 184.25 172.226562 Z M 185.828125 167.351562 " clip-rule="nonzero"/></clipPath><clipPath id="66177ec098"><path d="M 242.511719 167.351562 L 255.914062 167.351562 L 255.914062 180.109375 L 242.511719 180.109375 Z M 242.511719 167.351562 " clip-rule="nonzero"/></clipPath><clipPath id="f48f3aaa53"><path d="M 249.203125 167.351562 L 250.78125 172.226562 L 255.894531 172.226562 L 251.757812 175.234375 L 253.339844 180.109375 L 249.203125 177.097656 L 245.066406 180.109375 L 246.648438 175.234375 L 242.511719 172.226562 L 247.621094 172.226562 Z M 249.203125 167.351562 " clip-rule="nonzero"/></clipPath></defs><g clip-path="url(#25fe477865)"><g clip-path="url(#2580a7248b)"><path fill="#004aad" d="M 60.863281 162.433594 L 104.9375 162.433594 L 104.9375 206.511719 L 60.863281 206.511719 Z M 60.863281 162.433594 " fill-opacity="1" fill-rule="nonzero"/></g></g><g clip-path="url(#76a9737c04)"><g clip-path="url(#a7396015e5)"><path fill="#ffffff" d="M 63.121094 164.691406 L 102.679688 164.691406 L 102.679688 204.253906 L 63.121094 204.253906 Z M 63.121094 164.691406 " fill-opacity="1" fill-rule="nonzero"/></g></g><g clip-path="url(#44cd40a3be)"><path fill="#c0c1be" d="M 101.476562 184.46875 C 101.476562 186.316406 101.207031 188.101562 100.703125 189.789062 C 98.417969 197.457031 91.308594 203.050781 82.898438 203.050781 C 72.636719 203.050781 64.316406 194.730469 64.316406 184.46875 C 64.316406 180.335938 65.664062 176.519531 67.949219 173.433594 C 71.332031 168.855469 76.765625 165.890625 82.898438 165.890625 C 93.160156 165.890625 101.476562 174.207031 101.476562 184.46875 Z M 101.476562 184.46875 " fill-opacity="1" fill-rule="nonzero"/></g><g clip-path="url(#104f6d9e1e)"><path fill="#ebece9" d="M 101.476562 184.46875 C 101.476562 186.316406 101.207031 188.101562 100.703125 189.789062 C 97.320312 194.367188 91.882812 197.332031 85.753906 197.332031 C 75.492188 197.332031 67.175781 189.015625 67.175781 178.753906 C 67.175781 176.902344 67.445312 175.117188 67.949219 173.433594 C 71.332031 168.855469 76.765625 165.890625 82.898438 165.890625 C 93.160156 165.890625 101.476562 174.207031 101.476562 184.46875 Z M 101.476562 184.46875 " fill-opacity="1" fill-rule="nonzero"/><path fill="#ebece9" d="M 101.476562 184.46875 C 101.476562 186.316406 101.207031 188.101562 100.703125 189.789062 C 97.320312 194.367188 91.882812 197.332031 85.753906 197.332031 C 75.492188 197.332031 67.175781 189.015625 67.175781 178.753906 C 67.175781 176.902344 67.445312 175.117188 67.949219 173.433594 C 71.332031 168.855469 76.765625 165.890625 82.898438 165.890625 C 93.160156 165.890625 101.476562 174.207031 101.476562 184.46875 Z M 101.476562 184.46875 " fill-opacity="1" fill-rule="nonzero"/></g><g clip-path="url(#1afdcfc6e8)"><path fill="#fefefe" d="M 82.898438 165.890625 C 76.765625 165.890625 71.332031 168.855469 67.949219 173.433594 C 67.792969 173.953125 67.660156 174.480469 67.550781 175.015625 C 70.953125 171.171875 75.929688 168.746094 81.46875 168.746094 C 84.484375 168.746094 87.335938 169.46875 89.855469 170.746094 C 89.402344 170.726562 88.886719 170.789062 88.632812 171.125 C 87.972656 172 89.390625 174.273438 90.816406 175.644531 C 92.394531 177.167969 95.066406 178.617188 96.128906 177.75 C 96.492188 177.453125 96.585938 176.957031 96.609375 176.558594 C 97.433594 177.714844 98.492188 179.480469 99.21875 181.824219 C 99.546875 182.886719 100.046875 184.835938 100.046875 187.328125 C 100.046875 188.609375 99.917969 189.855469 99.671875 191.0625 C 100.035156 190.652344 100.378906 190.230469 100.703125 189.789062 C 101.207031 188.101562 101.476562 186.316406 101.476562 184.46875 C 101.476562 174.207031 93.160156 165.890625 82.898438 165.890625 Z M 82.898438 165.890625 " fill-opacity="1" fill-rule="nonzero"/></g><g clip-path="url(#373092ccba)"><path fill="#004aad" d="M 82.898438 203.765625 C 80.292969 203.765625 77.765625 203.253906 75.386719 202.246094 C 73.089844 201.277344 71.023438 199.886719 69.253906 198.113281 C 67.480469 196.339844 66.089844 194.277344 65.117188 191.980469 C 64.113281 189.601562 63.601562 187.074219 63.601562 184.46875 C 63.601562 181.863281 64.113281 179.339844 65.117188 176.957031 C 66.089844 174.660156 67.480469 172.597656 69.253906 170.824219 C 71.023438 169.054688 73.089844 167.664062 75.386719 166.691406 C 77.765625 165.683594 80.292969 165.175781 82.898438 165.175781 C 85.5 165.175781 88.027344 165.683594 90.40625 166.691406 C 92.703125 167.664062 94.769531 169.054688 96.539062 170.824219 C 98.3125 172.597656 99.703125 174.660156 100.675781 176.957031 C 101.679688 179.339844 102.191406 181.863281 102.191406 184.46875 C 102.191406 187.074219 101.679688 189.601562 100.675781 191.980469 C 99.703125 194.277344 98.3125 196.339844 96.539062 198.113281 C 94.769531 199.882812 92.703125 201.277344 90.40625 202.246094 C 88.027344 203.253906 85.5 203.765625 82.898438 203.765625 Z M 82.898438 166.605469 C 73.046875 166.605469 65.03125 174.617188 65.03125 184.46875 C 65.03125 194.320312 73.046875 202.335938 82.898438 202.335938 C 92.746094 202.335938 100.761719 194.320312 100.761719 184.46875 C 100.761719 174.617188 92.746094 166.605469 82.898438 166.605469 Z M 82.898438 166.605469 " fill-opacity="1" fill-rule="nonzero"/></g><g clip-path="url(#da8ef36592)"><path fill="#004aad" d="M 100.933594 188.464844 C 100.472656 188.539062 99.757812 188.566406 98.980469 188.269531 C 98.828125 188.210938 98.679688 188.140625 98.539062 188.066406 C 98.566406 187.28125 98.515625 186.179688 98.171875 184.925781 C 97.828125 183.660156 97.308594 182.675781 96.875 181.996094 C 97.074219 180.800781 97.191406 179.582031 97.214844 178.371094 C 97.230469 177.582031 97.210938 176.785156 97.148438 175.992188 C 97.972656 176.113281 98.792969 176.234375 99.617188 176.359375 C 98.980469 175.046875 97.875 173.167969 96.023438 171.320312 C 94.347656 169.644531 92.652344 168.59375 91.417969 167.953125 C 91.519531 168.773438 91.625 169.589844 91.726562 170.410156 C 90.433594 170.359375 89.132812 170.402344 87.847656 170.539062 C 87.117188 170.613281 86.378906 170.722656 85.648438 170.859375 C 85.070312 170.429688 84.230469 169.914062 83.132812 169.542969 C 81.710938 169.058594 80.445312 169.027344 79.597656 169.078125 C 79.507812 168.648438 79.425781 168.210938 79.359375 167.777344 C 79.28125 167.285156 79.214844 166.789062 79.164062 166.296875 L 78.59375 166.355469 C 78.648438 166.859375 78.714844 167.367188 78.792969 167.867188 C 78.863281 168.3125 78.945312 168.761719 79.039062 169.207031 C 78.320312 169.566406 77.34375 170.160156 76.382812 171.105469 C 75.503906 171.976562 74.921875 172.859375 74.550781 173.542969 C 73.242188 173.707031 71.96875 174.101562 70.8125 174.703125 C 70.078125 175.085938 69.390625 175.550781 68.761719 176.085938 C 68.46875 175.230469 68.179688 174.371094 67.890625 173.511719 C 67.039062 174.671875 65.90625 176.503906 65.140625 178.976562 C 64.335938 181.582031 64.265625 183.84375 64.335938 185.308594 C 65.019531 184.871094 65.707031 184.433594 66.394531 183.996094 C 66.839844 184.746094 67.324219 185.476562 67.84375 186.175781 C 68.410156 186.941406 69.023438 187.679688 69.675781 188.378906 C 69.667969 189.332031 69.769531 190.640625 70.234375 192.105469 C 70.667969 193.472656 71.277344 194.53125 71.789062 195.273438 C 71.554688 195.519531 71.328125 195.777344 71.113281 196.042969 C 70.65625 196.59375 70.234375 197.183594 69.859375 197.792969 L 70.34375 198.09375 C 70.707031 197.503906 71.117188 196.9375 71.554688 196.40625 C 71.757812 196.15625 71.972656 195.914062 72.195312 195.675781 C 72.996094 196.175781 74.097656 196.75 75.484375 197.171875 C 76.957031 197.621094 78.273438 197.753906 79.269531 197.773438 C 79.929688 198.578125 80.6875 199.292969 81.53125 199.910156 C 82.15625 200.367188 82.828125 200.769531 83.53125 201.101562 C 83.214844 201.75 82.898438 202.398438 82.582031 203.046875 C 84.011719 203.074219 86.136719 202.945312 88.570312 202.167969 C 90.859375 201.433594 92.582031 200.390625 93.710938 199.582031 C 93.222656 199.523438 92.628906 199.410156 91.980469 199.171875 C 91.800781 199.105469 91.632812 199.039062 91.476562 198.964844 C 92.164062 198.101562 92.742188 197.15625 93.199219 196.148438 C 93.644531 195.171875 93.96875 194.148438 94.171875 193.097656 C 94.839844 192.660156 95.632812 192.054688 96.417969 191.222656 C 97.300781 190.289062 97.910156 189.355469 98.320312 188.59375 C 98.464844 188.671875 98.617188 188.742188 98.773438 188.800781 C 99.335938 189.019531 99.867188 189.085938 100.316406 189.085938 C 100.585938 189.085938 100.828125 189.0625 101.027344 189.027344 Z M 75.320312 186.027344 C 74.507812 186.132812 73.535156 186.328125 72.464844 186.675781 C 71.457031 187.003906 70.597656 187.398438 69.894531 187.773438 C 69.332031 187.152344 68.800781 186.503906 68.300781 185.835938 C 67.738281 185.074219 67.214844 184.277344 66.738281 183.457031 C 66.9375 182.261719 67.234375 180.929688 67.679688 179.5 C 67.957031 178.613281 68.261719 177.789062 68.570312 177.035156 C 69.3125 176.304688 70.152344 175.691406 71.078125 175.210938 C 72.132812 174.660156 73.292969 174.292969 74.484375 174.128906 C 74.730469 174.75 75.074219 175.476562 75.574219 176.238281 C 76.289062 177.332031 77.082031 178.132812 77.726562 178.6875 C 77.070312 179.519531 76.398438 180.609375 75.929688 181.96875 C 75.40625 183.488281 75.28125 184.894531 75.320312 186.027344 Z M 78.679688 188.789062 C 77.730469 187.894531 76.800781 187.101562 75.910156 186.394531 C 75.832031 185.265625 75.910156 183.777344 76.46875 182.15625 C 76.988281 180.652344 77.765625 179.496094 78.480469 178.667969 C 79.476562 178.394531 80.488281 178.105469 81.511719 177.804688 C 82.574219 177.488281 83.613281 177.167969 84.628906 176.847656 C 85.609375 177.78125 86.601562 178.71875 87.585938 179.644531 C 88.660156 180.65625 89.75 181.675781 90.835938 182.683594 C 90.445312 183.519531 90.054688 184.472656 89.707031 185.546875 C 89.285156 186.863281 89.011719 188.089844 88.839844 189.164062 C 87.804688 189.992188 86.644531 190.636719 85.398438 191.089844 C 84.171875 191.53125 82.898438 191.773438 81.601562 191.804688 C 80.753906 190.839844 79.78125 189.820312 78.679688 188.789062 Z M 92.679688 195.910156 C 92.191406 196.984375 91.5625 197.984375 90.804688 198.886719 C 89.910156 199.339844 88.800781 199.816406 87.488281 200.203125 C 86.34375 200.542969 85.289062 200.738281 84.371094 200.847656 C 83.480469 200.484375 82.640625 200.011719 81.867188 199.449219 C 81.105469 198.890625 80.414062 198.242188 79.804688 197.523438 C 80.15625 196.9375 80.527344 196.238281 80.851562 195.421875 C 81.308594 194.289062 81.558594 193.246094 81.699219 192.375 C 83.027344 192.332031 84.332031 192.078125 85.589844 191.625 C 86.796875 191.191406 87.917969 190.582031 88.9375 189.8125 C 89.421875 190.519531 90.238281 191.5 91.511719 192.3125 C 92.253906 192.785156 92.96875 193.078125 93.554688 193.269531 C 93.359375 194.175781 93.066406 195.0625 92.679688 195.910156 Z M 96.644531 178.359375 C 96.621094 179.496094 96.515625 180.636719 96.332031 181.765625 C 95.59375 181.75 94.753906 181.777344 93.835938 181.878906 C 92.894531 181.988281 92.046875 182.160156 91.3125 182.347656 C 90.203125 181.316406 89.082031 180.265625 87.976562 179.226562 C 87.054688 178.359375 86.125 177.480469 85.203125 176.601562 C 85.441406 175.785156 85.664062 174.789062 85.777344 173.644531 C 85.859375 172.824219 85.875 172.070312 85.851562 171.40625 C 86.53125 171.277344 87.222656 171.179688 87.910156 171.105469 C 89.257812 170.964844 90.628906 170.925781 91.988281 170.992188 C 92.59375 171.667969 93.222656 172.351562 93.882812 173.042969 C 94.785156 173.984375 95.675781 174.878906 96.554688 175.722656 C 96.632812 176.597656 96.660156 177.484375 96.644531 178.359375 Z M 96.644531 178.359375 " fill-opacity="1" fill-rule="nonzero"/></g><g fill="#004aad" fill-opacity="1"><g transform="translate(114.345598, 192.117975)"><g><path d="M 9.28125 -21.4375 C 10.425781 -21.4375 11.539062 -21.269531 12.625 -20.9375 C 13.71875 -20.601562 14.523438 -20.273438 15.046875 -19.953125 L 15.8125 -19.4375 L 13.875 -15.609375 C 13.726562 -15.710938 13.515625 -15.84375 13.234375 -16 C 12.960938 -16.164062 12.453125 -16.382812 11.703125 -16.65625 C 10.960938 -16.925781 10.269531 -17.0625 9.625 -17.0625 C 8.820312 -17.0625 8.203125 -16.890625 7.765625 -16.546875 C 7.335938 -16.210938 7.125 -15.757812 7.125 -15.1875 C 7.125 -14.894531 7.222656 -14.625 7.421875 -14.375 C 7.628906 -14.132812 7.976562 -13.875 8.46875 -13.59375 C 8.96875 -13.3125 9.398438 -13.082031 9.765625 -12.90625 C 10.140625 -12.738281 10.71875 -12.484375 11.5 -12.140625 C 12.863281 -11.566406 14.023438 -10.78125 14.984375 -9.78125 C 15.953125 -8.789062 16.4375 -7.664062 16.4375 -6.40625 C 16.4375 -5.195312 16.21875 -4.140625 15.78125 -3.234375 C 15.34375 -2.335938 14.742188 -1.632812 13.984375 -1.125 C 13.234375 -0.613281 12.398438 -0.238281 11.484375 0 C 10.566406 0.25 9.570312 0.375 8.5 0.375 C 7.582031 0.375 6.679688 0.28125 5.796875 0.09375 C 4.910156 -0.0820312 4.164062 -0.3125 3.5625 -0.59375 C 2.96875 -0.875 2.429688 -1.148438 1.953125 -1.421875 C 1.484375 -1.703125 1.140625 -1.9375 0.921875 -2.125 L 0.59375 -2.40625 L 2.984375 -6.4375 C 3.191406 -6.257812 3.472656 -6.039062 3.828125 -5.78125 C 4.179688 -5.519531 4.8125 -5.164062 5.71875 -4.71875 C 6.632812 -4.28125 7.441406 -4.0625 8.140625 -4.0625 C 10.160156 -4.0625 11.171875 -4.75 11.171875 -6.125 C 11.171875 -6.414062 11.097656 -6.679688 10.953125 -6.921875 C 10.804688 -7.171875 10.550781 -7.414062 10.1875 -7.65625 C 9.820312 -7.90625 9.5 -8.101562 9.21875 -8.25 C 8.9375 -8.394531 8.476562 -8.613281 7.84375 -8.90625 C 7.207031 -9.207031 6.738281 -9.4375 6.4375 -9.59375 C 5.15625 -10.21875 4.164062 -11.003906 3.46875 -11.953125 C 2.769531 -12.898438 2.421875 -13.914062 2.421875 -15 C 2.421875 -16.882812 3.117188 -18.425781 4.515625 -19.625 C 5.910156 -20.832031 7.5 -21.4375 9.28125 -21.4375 Z M 9.28125 -21.4375 "/></g></g></g><g fill="#004aad" fill-opacity="1"><g transform="translate(131.487126, 192.117975)"><g><path d="M 2.296875 -13.09375 L 2.296875 -17.96875 L 6.8125 -17.96875 L 6.8125 -13.09375 L 9.5625 -13.09375 L 9.5625 -9.640625 L 6.8125 -9.640625 L 6.8125 -5.484375 C 6.8125 -4.273438 7.148438 -3.671875 7.828125 -3.671875 C 8.003906 -3.671875 8.1875 -3.703125 8.375 -3.765625 C 8.5625 -3.835938 8.703125 -3.910156 8.796875 -3.984375 L 8.953125 -4.078125 L 10.078125 -0.4375 C 9.109375 0.101562 8.003906 0.375 6.765625 0.375 C 5.910156 0.375 5.175781 0.226562 4.5625 -0.0625 C 3.957031 -0.363281 3.492188 -0.765625 3.171875 -1.265625 C 2.859375 -1.765625 2.632812 -2.289062 2.5 -2.84375 C 2.363281 -3.394531 2.296875 -3.988281 2.296875 -4.625 L 2.296875 -9.640625 L 0.40625 -9.640625 L 0.40625 -13.09375 Z M 2.296875 -13.09375 "/></g></g></g><g fill="#004aad" fill-opacity="1"><g transform="translate(141.562868, 192.117975)"><g><path d="M 2.421875 -1.625 C 1.203125 -2.957031 0.59375 -4.59375 0.59375 -6.53125 C 0.59375 -8.46875 1.203125 -10.109375 2.421875 -11.453125 C 3.648438 -12.796875 5.207031 -13.46875 7.09375 -13.46875 C 8.832031 -13.46875 10.257812 -12.925781 11.375 -11.84375 L 11.375 -13.09375 L 15.890625 -13.09375 L 15.890625 0 L 11.4375 0 L 11.4375 -1.484375 L 11.375 -1.484375 C 10.257812 -0.242188 8.832031 0.375 7.09375 0.375 C 5.207031 0.375 3.648438 -0.289062 2.421875 -1.625 Z M 6.265625 -8.75 C 5.679688 -8.175781 5.390625 -7.4375 5.390625 -6.53125 C 5.390625 -5.625 5.664062 -4.882812 6.21875 -4.3125 C 6.78125 -3.75 7.523438 -3.46875 8.453125 -3.46875 C 9.328125 -3.46875 10.050781 -3.753906 10.625 -4.328125 C 11.195312 -4.910156 11.484375 -5.644531 11.484375 -6.53125 C 11.484375 -7.4375 11.1875 -8.175781 10.59375 -8.75 C 10.007812 -9.332031 9.296875 -9.625 8.453125 -9.625 C 7.578125 -9.625 6.847656 -9.332031 6.265625 -8.75 Z M 6.265625 -8.75 "/></g></g></g><g fill="#004aad" fill-opacity="1"><g transform="translate(158.984985, 192.117975)"><g><path d="M 1.53125 0 L 1.53125 -13.09375 L 6.046875 -13.09375 L 6.046875 -11.203125 L 6.09375 -11.203125 C 6.132812 -11.265625 6.191406 -11.347656 6.265625 -11.453125 C 6.335938 -11.554688 6.5 -11.734375 6.75 -11.984375 C 7.007812 -12.242188 7.285156 -12.472656 7.578125 -12.671875 C 7.867188 -12.878906 8.242188 -13.0625 8.703125 -13.21875 C 9.160156 -13.382812 9.628906 -13.46875 10.109375 -13.46875 C 10.597656 -13.46875 11.078125 -13.398438 11.546875 -13.265625 C 12.023438 -13.128906 12.378906 -12.992188 12.609375 -12.859375 L 12.96875 -12.65625 L 11.078125 -8.828125 C 10.515625 -9.304688 9.726562 -9.546875 8.71875 -9.546875 C 8.175781 -9.546875 7.707031 -9.425781 7.3125 -9.1875 C 6.925781 -8.945312 6.648438 -8.65625 6.484375 -8.3125 C 6.328125 -7.976562 6.210938 -7.691406 6.140625 -7.453125 C 6.078125 -7.210938 6.046875 -7.023438 6.046875 -6.890625 L 6.046875 0 Z M 1.53125 0 "/></g></g></g><g fill="#004aad" fill-opacity="1"><g transform="translate(171.688068, 192.117975)"><g><path d="M 2.296875 -13.09375 L 2.296875 -17.96875 L 6.8125 -17.96875 L 6.8125 -13.09375 L 9.5625 -13.09375 L 9.5625 -9.640625 L 6.8125 -9.640625 L 6.8125 -5.484375 C 6.8125 -4.273438 7.148438 -3.671875 7.828125 -3.671875 C 8.003906 -3.671875 8.1875 -3.703125 8.375 -3.765625 C 8.5625 -3.835938 8.703125 -3.910156 8.796875 -3.984375 L 8.953125 -4.078125 L 10.078125 -0.4375 C 9.109375 0.101562 8.003906 0.375 6.765625 0.375 C 5.910156 0.375 5.175781 0.226562 4.5625 -0.0625 C 3.957031 -0.363281 3.492188 -0.765625 3.171875 -1.265625 C 2.859375 -1.765625 2.632812 -2.289062 2.5 -2.84375 C 2.363281 -3.394531 2.296875 -3.988281 2.296875 -4.625 L 2.296875 -9.640625 L 0.40625 -9.640625 L 0.40625 -13.09375 Z M 2.296875 -13.09375 "/></g></g></g><g fill="#004aad" fill-opacity="1"><g transform="translate(181.763811, 192.117975)"><g><path d="M 1.953125 -20.375 C 2.484375 -20.90625 3.113281 -21.171875 3.84375 -21.171875 C 4.582031 -21.171875 5.210938 -20.90625 5.734375 -20.375 C 6.265625 -19.851562 6.53125 -19.226562 6.53125 -18.5 C 6.53125 -17.769531 6.265625 -17.140625 5.734375 -16.609375 C 5.210938 -16.078125 4.582031 -15.8125 3.84375 -15.8125 C 3.113281 -15.8125 2.484375 -16.078125 1.953125 -16.609375 C 1.429688 -17.140625 1.171875 -17.769531 1.171875 -18.5 C 1.171875 -19.226562 1.429688 -19.851562 1.953125 -20.375 Z M 1.53125 -13.09375 L 1.53125 0 L 6.046875 0 L 6.046875 -13.09375 Z M 1.53125 -13.09375 "/></g></g></g><g fill="#004aad" fill-opacity="1"><g transform="translate(189.46729, 192.117975)"><g><path d="M 1.53125 0 L 1.53125 -13.09375 L 6.046875 -13.09375 L 6.046875 -11.71875 L 6.09375 -11.71875 C 7.269531 -12.882812 8.519531 -13.46875 9.84375 -13.46875 C 10.488281 -13.46875 11.128906 -13.382812 11.765625 -13.21875 C 12.410156 -13.050781 13.023438 -12.785156 13.609375 -12.421875 C 14.203125 -12.066406 14.679688 -11.5625 15.046875 -10.90625 C 15.410156 -10.25 15.59375 -9.488281 15.59375 -8.625 L 15.59375 0 L 11.078125 0 L 11.078125 -7.40625 C 11.078125 -8.082031 10.859375 -8.675781 10.421875 -9.1875 C 9.984375 -9.695312 9.414062 -9.953125 8.71875 -9.953125 C 8.039062 -9.953125 7.425781 -9.6875 6.875 -9.15625 C 6.320312 -8.632812 6.046875 -8.050781 6.046875 -7.40625 L 6.046875 0 Z M 1.53125 0 "/></g></g></g><g fill="#004aad" fill-opacity="1"><g transform="translate(206.328213, 192.117975)"><g><path d="M 0.9375 3.21875 L 4.640625 1.40625 C 5.328125 2.53125 6.507812 3.09375 8.1875 3.09375 C 8.96875 3.09375 9.691406 2.835938 10.359375 2.328125 C 11.035156 1.828125 11.375 1.0625 11.375 0.03125 L 11.375 -0.9375 C 10.582031 -0.0625 9.15625 0.375 7.09375 0.375 C 5.207031 0.375 3.648438 -0.289062 2.421875 -1.625 C 1.203125 -2.957031 0.59375 -4.59375 0.59375 -6.53125 C 0.59375 -8.46875 1.203125 -10.109375 2.421875 -11.453125 C 3.648438 -12.796875 5.207031 -13.46875 7.09375 -13.46875 C 8.78125 -13.46875 10.179688 -12.953125 11.296875 -11.921875 L 11.375 -11.921875 L 11.375 -13.09375 L 15.890625 -13.09375 L 15.890625 0.359375 C 15.890625 2.484375 15.179688 4.125 13.765625 5.28125 C 12.359375 6.4375 10.5 7.015625 8.1875 7.015625 C 4.445312 7.015625 2.03125 5.75 0.9375 3.21875 Z M 6.265625 -8.75 C 5.679688 -8.175781 5.390625 -7.4375 5.390625 -6.53125 C 5.390625 -5.625 5.664062 -4.882812 6.21875 -4.3125 C 6.78125 -3.75 7.523438 -3.46875 8.453125 -3.46875 C 9.328125 -3.46875 10.050781 -3.753906 10.625 -4.328125 C 11.195312 -4.910156 11.484375 -5.644531 11.484375 -6.53125 C 11.484375 -7.4375 11.1875 -8.175781 10.59375 -8.75 C 10.007812 -9.332031 9.296875 -9.625 8.453125 -9.625 C 7.578125 -9.625 6.847656 -9.332031 6.265625 -8.75 Z M 6.265625 -8.75 "/></g></g></g><g fill="#004aad" fill-opacity="1"><g transform="translate(223.75033, 192.117975)"><g/></g></g><g fill="#004aad" fill-opacity="1"><g transform="translate(230.714071, 192.117975)"><g><path d="M 6.328125 -21.046875 L 6.328125 -4.203125 L 13.578125 -4.203125 L 13.578125 0 L 1.53125 0 L 1.53125 -21.046875 Z M 6.328125 -21.046875 "/></g></g></g><g fill="#004aad" fill-opacity="1"><g transform="translate(245.126213, 192.117975)"><g><path d="M 1.953125 -20.375 C 2.484375 -20.90625 3.113281 -21.171875 3.84375 -21.171875 C 4.582031 -21.171875 5.210938 -20.90625 5.734375 -20.375 C 6.265625 -19.851562 6.53125 -19.226562 6.53125 -18.5 C 6.53125 -17.769531 6.265625 -17.140625 5.734375 -16.609375 C 5.210938 -16.078125 4.582031 -15.8125 3.84375 -15.8125 C 3.113281 -15.8125 2.484375 -16.078125 1.953125 -16.609375 C 1.429688 -17.140625 1.171875 -17.769531 1.171875 -18.5 C 1.171875 -19.226562 1.429688 -19.851562 1.953125 -20.375 Z M 1.53125 -13.09375 L 1.53125 0 L 6.046875 0 L 6.046875 -13.09375 Z M 1.53125 -13.09375 "/></g></g></g><g fill="#004aad" fill-opacity="1"><g transform="translate(252.829692, 192.117975)"><g><path d="M 1.53125 0 L 1.53125 -13.09375 L 6.046875 -13.09375 L 6.046875 -11.71875 L 6.09375 -11.71875 C 7.269531 -12.882812 8.519531 -13.46875 9.84375 -13.46875 C 10.488281 -13.46875 11.128906 -13.382812 11.765625 -13.21875 C 12.410156 -13.050781 13.023438 -12.785156 13.609375 -12.421875 C 14.203125 -12.066406 14.679688 -11.5625 15.046875 -10.90625 C 15.410156 -10.25 15.59375 -9.488281 15.59375 -8.625 L 15.59375 0 L 11.078125 0 L 11.078125 -7.40625 C 11.078125 -8.082031 10.859375 -8.675781 10.421875 -9.1875 C 9.984375 -9.695312 9.414062 -9.953125 8.71875 -9.953125 C 8.039062 -9.953125 7.425781 -9.6875 6.875 -9.15625 C 6.320312 -8.632812 6.046875 -8.050781 6.046875 -7.40625 L 6.046875 0 Z M 1.53125 0 "/></g></g></g><g fill="#004aad" fill-opacity="1"><g transform="translate(269.690615, 192.117975)"><g><path d="M 14.78125 -5.921875 L 5.28125 -5.921875 C 5.28125 -5.003906 5.578125 -4.320312 6.171875 -3.875 C 6.765625 -3.4375 7.410156 -3.21875 8.109375 -3.21875 C 8.847656 -3.21875 9.425781 -3.3125 9.84375 -3.5 C 10.269531 -3.695312 10.753906 -4.085938 11.296875 -4.671875 L 14.5625 -3.03125 C 13.207031 -0.757812 10.945312 0.375 7.78125 0.375 C 5.8125 0.375 4.117188 -0.296875 2.703125 -1.640625 C 1.296875 -2.992188 0.59375 -4.625 0.59375 -6.53125 C 0.59375 -8.4375 1.296875 -10.066406 2.703125 -11.421875 C 4.117188 -12.785156 5.8125 -13.46875 7.78125 -13.46875 C 9.851562 -13.46875 11.539062 -12.867188 12.84375 -11.671875 C 14.144531 -10.472656 14.796875 -8.757812 14.796875 -6.53125 C 14.796875 -6.226562 14.789062 -6.023438 14.78125 -5.921875 Z M 5.40625 -8.421875 L 10.390625 -8.421875 C 10.285156 -9.097656 10.015625 -9.617188 9.578125 -9.984375 C 9.148438 -10.347656 8.59375 -10.53125 7.90625 -10.53125 C 7.15625 -10.53125 6.554688 -10.332031 6.109375 -9.9375 C 5.671875 -9.550781 5.4375 -9.046875 5.40625 -8.421875 Z M 5.40625 -8.421875 "/></g></g></g><g fill="#004aad" fill-opacity="1"><g transform="translate(285.072062, 192.117975)"><g><path d="M 17.703125 -21.046875 L 17.703125 -7.46875 C 17.703125 -4.882812 17.003906 -2.929688 15.609375 -1.609375 C 14.210938 -0.285156 12.171875 0.375 9.484375 0.375 C 6.796875 0.375 4.753906 -0.285156 3.359375 -1.609375 C 1.972656 -2.929688 1.28125 -4.882812 1.28125 -7.46875 L 1.28125 -21.046875 L 6.078125 -21.046875 L 6.078125 -8.875 C 6.078125 -7.175781 6.34375 -5.992188 6.875 -5.328125 C 7.414062 -4.671875 8.285156 -4.34375 9.484375 -4.34375 C 10.691406 -4.34375 11.5625 -4.671875 12.09375 -5.328125 C 12.632812 -5.992188 12.90625 -7.175781 12.90625 -8.875 L 12.90625 -21.046875 Z M 17.703125 -21.046875 "/></g></g></g><g fill="#004aad" fill-opacity="1"><g transform="translate(304.050171, 192.117975)"><g><path d="M 15 -11.46875 C 16.226562 -10.132812 16.84375 -8.5 16.84375 -6.5625 C 16.84375 -4.625 16.226562 -2.984375 15 -1.640625 C 13.78125 -0.296875 12.222656 0.375 10.328125 0.375 C 8.597656 0.375 7.171875 -0.164062 6.046875 -1.25 L 6.046875 6.640625 L 1.53125 6.640625 L 1.53125 -13.09375 L 6 -13.09375 L 6 -11.609375 L 6.046875 -11.609375 C 7.171875 -12.847656 8.597656 -13.46875 10.328125 -13.46875 C 12.222656 -13.46875 13.78125 -12.800781 15 -11.46875 Z M 11.15625 -4.328125 C 11.75 -4.910156 12.046875 -5.648438 12.046875 -6.546875 C 12.046875 -7.453125 11.765625 -8.191406 11.203125 -8.765625 C 10.640625 -9.335938 9.898438 -9.625 8.984375 -9.625 C 8.097656 -9.625 7.367188 -9.332031 6.796875 -8.75 C 6.222656 -8.175781 5.9375 -7.445312 5.9375 -6.5625 C 5.9375 -5.65625 6.226562 -4.910156 6.8125 -4.328125 C 7.40625 -3.753906 8.128906 -3.46875 8.984375 -3.46875 C 9.847656 -3.46875 10.570312 -3.753906 11.15625 -4.328125 Z M 11.15625 -4.328125 "/></g></g></g><g clip-path="url(#75a1d9e891)"><g clip-path="url(#c13b65e1c3)"><path fill="#004aad" d="M 179.136719 167.351562 L 192.539062 167.351562 L 192.539062 180.109375 L 179.136719 180.109375 Z M 179.136719 167.351562 " fill-opacity="1" fill-rule="nonzero"/></g></g><g clip-path="url(#66177ec098)"><g clip-path="url(#f48f3aaa53)"><path fill="#004aad" d="M 242.511719 167.351562 L 255.914062 167.351562 L 255.914062 180.109375 L 242.511719 180.109375 Z M 242.511719 167.351562 " fill-opacity="1" fill-rule="nonzero"/></g></g></svg>